{
  "accessors": [
    {
      "name": "positions",
      "bufferView": 0,
      "componentType": 5126,
      "count": 5,
      "type": "VEC3",
      "max": [
        -19000,
        -59357.91015625,
        13.800000190734863
      ],
      "min": [
        -19000,
        -59937.55859375,
        2.2200000286102295
      ]
    },
    {
      "name": "colors",
      "bufferView": 0,
      "byteOffset": 12,
      "componentType": 5125,
      "count": 5,
      "type": "VEC3"
    }
  ],
  "asset": {
    "generator": "cesiumtiles-gltf",
    "version": "2.0"
  },
  "bufferViews": [
    {
      "name": "vertices",
      "buffer": 0,
      "byteLength": 120,
      "byteStride": 24,
      "target": 34962,
      "byteOffset": 0
    }
  ],
  "buffers": [
    {
      "uri": "sample_data.bin",
      "byteLength": 120
    }
  ],
  "meshes": [
    {
      "primitives": [
        {
          "attributes": {
            "POSITION": 0
          },
          "mode": 0
        }
      ]
    }
  ],
  "nodes": [
    {
      "mesh": 0,
      "scale": [
        0.01,
        0.01,
        0.01
      ],
      "translation": [
        -19000,
        -59937.56,
        2.22
      ]
    }
  ],
  "scenes": [
    {
      "nodes": [
        0
      ]
    }
  ]
}
