{
  "extensionsUsed": [
    "KHR_mesh_quantization"
  ],
  "extensionsRequired": [
    "KHR_mesh_quantization"
  ],
  "accessors": [
    {
      "name": "positions",
      "bufferView": 0,
      "componentType": 5123,
      "count": 5,
      "type": "VEC3",
      "max": [
        0,
        16383,
        327
      ],
      "min": [
        0,
        0,
        0
      ]
    },
    {
      "name": "colors",
      "bufferView": 0,
      "byteOffset": 6,
      "componentType": 5123,
      "count": 5,
      "type": "VEC3"
    }
  ],
  "asset": {
    "generator": "cesiumtiles-gltf",
    "version": "2.0"
  },
  "bufferViews": [
    {
      "name": "vertices",
      "buffer": 0,
      "byteLength": 60,
      "byteStride": 12,
      "target": 34962,
      "byteOffset": 0
    }
  ],
  "buffers": [
    {
      "uri": "sample_data.bin",
      "byteLength": 60
    }
  ],
  "meshes": [
    {
      "primitives": [
        {
          "attributes": {
            "POSITION": 0
          },
          "mode": 0
        }
      ]
    }
  ],
  "nodes": [
    {
      "mesh": 0,
      "scale": [
        0.01,
        0.01,
        0.01
      ],
      "translation": [
        -19000,
        -59937.56,
        2.22
      ]
    }
  ],
  "scenes": [
    {
      "nodes": [
        0
      ]
    }
  ]
}
